<?xml version="1.0" encoding="utf-8"?>
<!-- Generator: Adobe Illustrator 16.0.0, SVG Export Plug-In . SVG Version: 6.00 Build 0)  -->
<!DOCTYPE svg PUBLIC "-//W3C//DTD SVG 1.1//EN" "http://www.w3.org/Graphics/SVG/1.1/DTD/svg11.dtd">
<svg version="1.1" id="Layer_1" xmlns="http://www.w3.org/2000/svg" xmlns:xlink="http://www.w3.org/1999/xlink" x="0px" y="0px"
	 width="947.291px" height="259.184px" viewBox="0 0 947.291 259.184" enable-background="new 0 0 947.291 259.184"
	 xml:space="preserve">
<g>
	<g>
		<polygon fill-rule="evenodd" clip-rule="evenodd" points="315.9,34.285 373.854,34.285 373.854,230.635 315.9,230.635 
			315.9,34.285 		"/>
	</g>
	<g>
		<polygon fill-rule="evenodd" clip-rule="evenodd" points="404.267,230.635 404.267,34.285 563.648,34.285 563.648,72.36 
			462.223,72.36 462.223,112.879 555.529,112.879 555.529,150.954 462.223,150.954 462.223,192.564 563.648,192.564 
			563.648,230.635 404.267,230.635 		"/>
	</g>
	<g>
		<polygon fill-rule="evenodd" clip-rule="evenodd" points="596.097,230.635 596.097,34.285 755.465,34.285 755.465,72.36 
			654.049,72.36 654.049,112.879 747.355,112.879 747.355,150.954 654.049,150.954 654.049,192.564 755.465,192.564 
			755.465,230.635 596.097,230.635 		"/>
	</g>
	<g>
		<polygon fill-rule="evenodd" clip-rule="evenodd" points="787.923,230.635 787.923,34.285 947.291,34.285 947.291,72.36 
			845.873,72.36 845.873,112.879 939.18,112.879 939.18,150.954 845.873,150.954 845.873,192.564 947.291,192.564 947.291,230.635 
			787.923,230.635 		"/>
	</g>
	<g>
		<path fill-rule="evenodd" clip-rule="evenodd" d="M275.937,122.739l-2.309-1.229c-23.684-15.125-45.77-32.239-66.567-51.642
			l-22.983-22.53c-9.304-9.707-18.355-20.429-26.956-30.667L146.652,2.747c-1.284-0.718-2.888-1.924-4.301-2.278
			c-3.074-1.267-6.419,0.239-8.916,2.04L114.49,25.647C84.133,60.956,48.179,93.904,8.956,119.155
			c-3.084,2.29-7.696,4.519-8.667,8.25c-1.026,3.373,0.835,6.146,3.087,8.255c31.381,20.306,61.428,44.4,88.132,71.881
			c4.749,4.699,8.604,9.332,13.229,13.737c7.824,9.758,17.007,19.575,24.194,30.055c2.256,2.229,2.633,5.849,6.167,6.923
			c2.764,0.912,6.162,1.523,8.805,0l2.618-2.466c32.484-43.195,73.698-81.993,119.729-113.317
			c4.625-3.863,13.417-5.301,13.541-12.466C279.479,126.687,278.957,124.551,275.937,122.739z M104.562,182.052
			c-2.553,0-4.091-1.568-4.623-3.462c-2.079-2.896-0.79-8.121,3.873-8.121c2.553,0,4.091,1.568,4.623,3.462
			C110.514,176.826,109.224,182.052,104.562,182.052z M136.752,214.66c-1.903,1.114-4.188,0.769-5.768-0.575
			c-1.052-0.541-1.863-1.831-2.161-2.913c-0.355-1.29-0.172-2.698,0.504-3.853c0.655-1.118,1.738-1.954,2.988-2.298
			c0.886-0.238,1.772-0.238,2.658,0c0.398,0.168,0.796,0.336,1.194,0.504c0.959,0.422,1.839,1.421,2.377,2.294
			C139.979,210.14,139.06,213.309,136.752,214.66z"/>
	</g>
	<g>
		<path fill-rule="evenodd" clip-rule="evenodd" fill="#FFFFFF" d="M239.546,120.472c-15.727-21.085-34.86-41.023-55.469-58.983
			l-1.345-0.718c-7.447-6.748-15.918-13.369-24.074-19.217c-7.767-6.203-19.38-11.808-28.632-5.06
			c-8.861,5.962-17.264,12.05-25.744,18.922c-0.703,0.418-1.539,1.316-1.983,1.748c-19.708,16.505-39.222,34.579-55.146,53.617
			c-4.493,5.481-9.24,10.844-10.979,17.352c-0.065,3.49,0.516,6.746,2.509,9.394c13.475,18.858,31.33,36.884,49.103,52.357
			c15.346,12.836,30.114,26.935,47.636,35.546c5.776,2.535,12.26-0.418,17.073-3.612c23.819-15.728,45.069-35.426,65.218-55.787
			c9.306-10.721,19.972-20.549,25.233-32.841C244.36,128.306,242.113,124.154,239.546,120.472z"/>
	</g>
	<g>
		<path fill-rule="evenodd" clip-rule="evenodd" fill="#FFFFFF" d="M139.398,59.15l-2.563,7.706l-12.84,34.527
			c3.209,0.292,7.193,0,10.332,0.292v0.306l-1.861,39.033l0.327,0.434c4.108,0.354,9.236,0.54,13.414-0.127v-0.594l-1.671-37.9
			l0.256-1.264l11.302-0.18c-5.65-13.982-11.111-28.083-16.372-42.232H139.398L139.398,59.15z"/>
	</g>
	<g>
		<g>
			<path fill-rule="evenodd" clip-rule="evenodd" fill="none" d="M95.69,113.246c-7.2,3.378-17.79,8.507-16.629,17.773
				c1.538,5.063,7.38,8.313,12.003,10.428c25.542,10.545,59.447,10.907,86.405,3.01c6.676-2.403,15.601-5.893,16.817-13.551
				c-0.063-6.331-7.189-10.305-12.326-12.715v-0.301c1.794-0.66,3.856-1.267,5.717-1.457v-0.173
				c-9.051-1.508-17.786-3.737-26.514-5.903c1.669,3.61,2.885,7.407,4.301,11.153c2.631-0.793,5.327-1.396,8.148-1.758
				c4.626,1.692,11.234,4.1,11.88,9.518c0.512,5.058-5.393,7.528-9.117,9.58c-19.771,6.747-42.05,7.414-62.655,2.291
				c-5.708-1.688-13.933-3.859-14.634-10.654c4.042-8.977,14.51-10.852,23.236-13.013c-4.492-2.722-9.052-5.131-13.418-8.141
				C104.228,109.575,99.924,111.5,95.69,113.246L95.69,113.246z"/>
		</g>
	</g>
	<g>
		<path fill-rule="evenodd" clip-rule="evenodd" fill="#FFFFFF" d="M132.211,152.171c-0.768,13.857-0.958,26.693-2.052,40.616
			c5.844,0.472,12.451,0.954,18.681,0.109l-1.864-38.74l-0.324-1.866C141.906,152.468,137.417,152.65,132.211,152.171
			L132.211,152.171z"/>
	</g>
	<g>
		<path fill-rule="evenodd" clip-rule="evenodd" d="M185.906,238.897v-2.359h1.571c0.849,0,2.007,0.067,2.007,1.078
			c0,1.086-0.595,1.281-1.593,1.281H185.906L185.906,238.897z M185.906,240.567h1.059l2.407,4.121h2.653l-2.674-4.297
			c1.392-0.103,2.517-0.753,2.517-2.563c0-2.238-1.589-2.952-4.289-2.952h-3.902v9.812h2.23V240.567L185.906,240.567z
			 M197.266,239.788c0-5.764-4.606-9.114-9.743-9.114c-5.16,0-9.762,3.351-9.762,9.114s4.603,9.124,9.762,9.124
			C192.66,248.912,197.266,245.552,197.266,239.788L197.266,239.788z M194.465,239.788c0,4.195-3.189,7.017-6.942,7.017v-0.02
			c-3.847,0.02-6.954-2.802-6.954-6.997c0-4.197,3.107-6.99,6.954-6.99C191.276,232.798,194.465,235.591,194.465,239.788
			L194.465,239.788z"/>
	</g>
</g>
<g>
	<path d="M165.848,114.516v-11.849c10.122-0.105,10.28-15.098,0.476-15.622c1.053-2.151,0.684-4.825-1.001-6.607
		c-1.002-1.048-2.425-1.677-3.955-1.677c-1.476,0-2.897,0.629-3.9,1.677c0,0,0,0.053-0.052,0.053c0,0,0-0.053-0.053-0.053
		c-1.002-1.048-2.372-1.677-3.9-1.677c-1.53,0-2.899,0.629-3.902,1.677c0,0,0,0.053-0.053,0.053c0,0,0-0.053-0.051-0.053
		c-1.002-1.048-2.372-1.677-3.902-1.677c-1.053,0-2.002,0.316-2.846,0.841V52.707c0-3.514-5.271-3.514-5.271,0v26.895
		c-0.845-0.525-1.846-0.841-2.898-0.841c-1.531,0-2.9,0.629-3.902,1.677l-0.054,0.053l-0.052-0.053
		c-1-1.048-2.373-1.677-3.901-1.677c-1.528,0-2.898,0.629-3.901,1.677l-0.052,0.053l-0.053-0.053
		c-1.001-1.048-2.372-1.677-3.9-1.677s-2.898,0.629-3.9,1.677c-1.74,1.782-2.055,4.456-1.003,6.607
		c-9.856,0.524-9.698,15.517,0.423,15.622v11.849c-10.28,0.102-10.28,15.516,0,15.621v31c0.11,0.532,0.208,1.074,0.298,1.615v-0.901
		c0-3.303,5.15-3.303,5.15,0v26.924c4.149,5.218,8.271,10.527,11.9,16.006h21.106c4.243-5.795,8.62-11.513,13.154-17.131v-57.513
		C176.128,130.031,176.128,114.617,165.848,114.516z M120.408,86.258c-0.421,0.472-1.054,0.734-1.687,0.734
		c-0.686,0-1.265-0.262-1.687-0.734c-0.549-0.577-0.77-1.364-0.685-2.118c-0.121-0.789,0.1-1.623,0.675-2.228
		c0.422-0.472,1.001-0.734,1.687-0.734c0.633,0,1.265,0.262,1.687,0.734c0.549,0.576,0.77,1.363,0.683,2.115
		C121.206,84.814,120.985,85.652,120.408,86.258z M128.316,86.258c-0.421,0.472-1.055,0.734-1.688,0.734s-1.264-0.262-1.686-0.734
		c-0.551-0.577-0.771-1.364-0.684-2.118c-0.123-0.789,0.098-1.623,0.673-2.228c0.421-0.472,1.054-0.734,1.688-0.734
		c0.632,0,1.265,0.262,1.687,0.734c0.549,0.576,0.77,1.363,0.683,2.117C129.113,84.816,128.891,85.652,128.316,86.258z
		 M132.166,84.14c-0.125-0.786,0.097-1.623,0.674-2.228c0.421-0.472,1.054-0.734,1.687-0.734c0.685,0,1.265,0.262,1.687,0.734
		c0.548,0.576,0.769,1.362,0.683,2.115c0.124,0.787-0.097,1.625-0.672,2.23c-0.423,0.472-1.004,0.734-1.687,0.734
		c-0.634,0-1.266-0.262-1.688-0.734C132.301,85.682,132.08,84.895,132.166,84.14z M144.762,157.449c0,6.394-9.436,6.394-9.436,0
		v-21.283c0-6.345,9.436-6.345,9.436,0V157.449z M140.071,115.98c-4.111,0-7.432-3.354-7.432-7.39c0-0.087,0.01-0.173,0.014-0.264
		c-0.012-0.152-0.026-0.309-0.026-0.464c0-4.038,3.323-7.392,7.434-7.392c4.059,0,7.38,3.354,7.38,7.392
		c0,0.089-0.01,0.177-0.014,0.268c0.009,0.152,0.023,0.303,0.023,0.46C147.451,112.627,144.129,115.98,140.071,115.98z
		 M147.241,86.258c-0.422,0.472-1.002,0.734-1.688,0.734c-0.632,0-1.264-0.262-1.686-0.734c-0.551-0.577-0.771-1.364-0.685-2.118
		c-0.122-0.789,0.097-1.623,0.674-2.228c0.423-0.472,1.053-0.734,1.686-0.734c0.687,0,1.266,0.262,1.687,0.734
		c0.549,0.576,0.77,1.363,0.685,2.115C148.037,84.814,147.817,85.652,147.241,86.258z M155.148,86.258
		c-0.423,0.472-1.002,0.734-1.687,0.734c-0.633,0-1.212-0.262-1.689-0.734c-0.549-0.577-0.77-1.364-0.683-2.12
		c-0.122-0.787,0.097-1.621,0.673-2.226c0.476-0.472,1.056-0.734,1.687-0.734c0.687,0,1.266,0.262,1.688,0.734
		c0.55,0.576,0.77,1.363,0.684,2.115C155.944,84.814,155.725,85.652,155.148,86.258z M163.055,86.258
		c-0.421,0.472-1.002,0.734-1.687,0.734c-0.632,0-1.213-0.262-1.634-0.734c-0.581-0.577-0.813-1.365-0.721-2.121
		c-0.129-0.786,0.104-1.619,0.711-2.224c0.421-0.472,1.001-0.734,1.635-0.734c0.685,0,1.265,0.262,1.686,0.734
		c0.559,0.585,0.797,1.389,0.703,2.155C163.868,84.843,163.652,85.662,163.055,86.258z"/>
</g>
<path d="M119.485,191.153l9.916,13.627h22.367c0.892-2.143,0.693-4.967-0.626-6.778c-1.574-2.162-4.204-2.162-5.778,0l-1.634,2.247
	c-0.129,0.177-0.258,0.354-0.387,0.53l-0.711,0.979c-0.451,0.619-0.902,1.239-1.354,1.86c-0.195,0.268-0.389,0.534-0.583,0.802
	l-15.905-21.858c-0.758-1.04-1.601-1.537-2.432-1.63c0.03-0.274,0.053-0.555,0.053-0.857v-17.546c0-1.754-0.483-3.079-1.21-3.985
	c-0.642-1.096-1.765-1.782-3.13-1.782c-2.15,0-3.71,1.694-3.71,4.029v0.313c-0.076,0.439-0.121,0.913-0.121,1.425v12.852
	c-0.065,0.413-0.102,0.853-0.102,1.328v7.5l5.109,7.021C119.327,191.204,119.407,191.185,119.485,191.153z"/>
<g>
	<path d="M54.387,105.967H65.95v31.016c0,4.922,0.143,8.112,0.43,9.57c0.494,2.344,1.673,4.226,3.535,5.645
		c1.861,1.42,4.407,2.129,7.637,2.129c3.281,0,5.755-0.67,7.422-2.012c1.666-1.341,2.669-2.988,3.008-4.941
		c0.338-1.953,0.508-5.195,0.508-9.727v-31.68h11.563v30.078c0,6.875-0.313,11.732-0.938,14.57
		c-0.625,2.839-1.777,5.234-3.457,7.188s-3.926,3.51-6.738,4.668s-6.484,1.738-11.016,1.738c-5.469,0-9.616-0.632-12.441-1.895
		c-2.826-1.263-5.059-2.903-6.699-4.922c-1.641-2.018-2.722-4.134-3.242-6.348c-0.756-3.281-1.133-8.125-1.133-14.531V105.967z"/>
	<path d="M215.559,142.178l11.211,3.555c-1.719,6.25-4.577,10.893-8.574,13.926c-3.998,3.034-9.069,4.551-15.215,4.551
		c-7.604,0-13.854-2.598-18.75-7.793c-4.896-5.195-7.344-12.298-7.344-21.309c0-9.531,2.461-16.934,7.383-22.207
		s11.393-7.91,19.414-7.91c7.005,0,12.695,2.07,17.07,6.211c2.604,2.448,4.557,5.964,5.859,10.547l-11.445,2.734
		c-0.678-2.969-2.09-5.313-4.238-7.031s-4.76-2.578-7.832-2.578c-4.245,0-7.689,1.523-10.332,4.57
		c-2.644,3.047-3.965,7.982-3.965,14.805c0,7.24,1.302,12.396,3.906,15.469c2.604,3.073,5.989,4.609,10.156,4.609
		c3.072,0,5.716-0.977,7.93-2.93C213.006,149.443,214.595,146.371,215.559,142.178z"/>
</g>
<line x1="115.966" y1="130.723" x2="115.966" y2="183.428"/>
<line x1="125.194" y1="192.287" x2="115.966" y2="183.428"/>
<path fill="none" d="M116.212,188.885c5.595,5.201,11.188,10.403,16.782,15.605"/>
<path display="none" fill-rule="evenodd" clip-rule="evenodd" d="M131.435,192.639c-0.069-0.063-0.128-0.14-0.201-0.194
	c-0.166-0.232-0.349-0.442-0.549-0.626c-0.336-0.638-0.773-1.18-1.319-1.551c-0.174-0.165-0.358-0.318-0.559-0.444
	c-0.399-0.678-0.921-1.232-1.582-1.557c-0.405-0.882-0.987-1.613-1.767-2.02c-0.193-0.451-0.431-0.868-0.718-1.222
	c-0.329-0.605-0.745-1.127-1.269-1.484c-0.307-0.544-0.693-1.006-1.162-1.346v-6.61c0-7.241-8.171-7.241-8.171,0v9.451
	c0,2.013,0.633,3.467,1.545,4.359c0.18,0.229,0.377,0.438,0.596,0.616c0.217,0.313,0.457,0.601,0.738,0.83
	c0.261,0.36,0.561,0.672,0.908,0.913c0.108,0.112,0.236,0.196,0.357,0.289c0.234,0.439,0.519,0.826,0.854,1.145
	c0.375,0.601,0.858,1.082,1.446,1.392c0.413,0.97,1.046,1.754,1.893,2.179c0.356,0.788,0.871,1.432,1.524,1.857
	c0.33,0.583,0.753,1.074,1.271,1.416c0.314,0.605,0.722,1.123,1.227,1.494c0.289,0.391,0.625,0.727,1.017,0.974
	c0.655,1.185,1.687,2,3.103,2c1.324,0,2.303-0.721,2.961-1.781C136.086,199.955,135.372,193.021,131.435,192.639z"/>
</svg>
