<?xml version="1.0" encoding="utf-8"?>
<!-- Generated by IcoMoon.io -->
<!DOCTYPE svg PUBLIC "-//W3C//DTD SVG 1.1//EN" "http://www.w3.org/Graphics/SVG/1.1/DTD/svg11.dtd">
<svg version="1.1" xmlns="http://www.w3.org/2000/svg" xmlns:xlink="http://www.w3.org/1999/xlink" width="50" height="20" viewBox="0 0 50 20">
<g transform="translate(0 0)">
	<path d="M2.28 9.944l0.056 7.907h4.299v-15.701l-4.393-0.112 0.037 7.907z" fill="#ffffff" />
	<path d="M9.009 9.944l0.056 7.907 11.869 0.075v-3.159h-7.682l0.056-1.626 0.056-1.645 3.514-0.056 3.495-0.037v-2.991h-7.122l0.056-1.645 0.056-1.626 7.477-0.075 0.056-1.495 0.056-1.514h-11.981l0.037 7.888z" fill="#ffffff" />
	<path d="M23.439 2.299c-0.037 0.131-0.056 3.682-0.037 7.888l0.056 7.664h11.963l0.056-1.551 0.056-1.533h-7.682v-3.364l3.514-0.037 3.495-0.056v-2.804l-3.495-0.056-3.514-0.037v-3.364h7.664v-2.991h-5.981c-4.729 0-6.019 0.056-6.093 0.243z" fill="#ffffff" />
	<path d="M37.981 9.944l0.056 7.907 11.869 0.112v-3.196h-7.664v-3.364h7.103v-2.991h-7.122l0.056-1.645 0.056-1.626 3.794-0.056 3.776-0.037v-2.991h-11.963l0.037 7.888z" fill="#ffffff" />
</g>
</svg>
