<?xml version="1.0" encoding="utf-8"?>
<!-- Generated by IcoMoon.io -->
<!DOCTYPE svg PUBLIC "-//W3C//DTD SVG 1.1//EN" "http://www.w3.org/Graphics/SVG/1.1/DTD/svg11.dtd">
<svg version="1.1" xmlns="http://www.w3.org/2000/svg" xmlns:xlink="http://www.w3.org/1999/xlink" width="22" height="20" viewBox="0 0 22 20">
<g transform="translate(0 0)">
	<path d="M14.916 6.966c-0.95 0.156-1.961 0.866-2.335 1.642-0.285 0.581-0.363 0.989-0.33 1.698 0.045 0.994 0.369 1.67 1.061 2.196 0.693 0.531 1.201 0.682 2.413 0.721 0.955 0.028 1.363-0.022 1.989-0.257l0.313-0.117 0.045-0.464c0.078-0.827 0.078-0.849-0.095-0.866-0.134-0.017-0.162 0.022-0.352 0.408-0.168 0.352-0.251 0.458-0.464 0.592-0.385 0.24-0.592 0.285-1.24 0.263-0.704-0.022-0.989-0.14-1.43-0.575-0.52-0.514-0.749-1.19-0.749-2.179 0-1.291 0.391-2.089 1.218-2.497 0.33-0.162 0.436-0.184 0.916-0.201 0.48-0.017 0.575-0.006 0.844 0.117 0.413 0.19 0.709 0.542 0.855 1.022 0.106 0.358 0.123 0.385 0.285 0.402l0.173 0.017 0.028-0.771c0.017-0.425 0.045-0.838 0.067-0.916 0.034-0.123 0.017-0.151-0.084-0.179-0.067-0.017-0.179-0.011-0.251 0.017-0.078 0.034-0.324 0.017-0.654-0.028-0.475-0.073-1.883-0.101-2.223-0.045z" fill="#ffffff" />
	<path d="M9.358 7.050c-0.184 0.028-0.67 0.034-1.078 0.017l-0.749-0.034 0.022 0.128c0.011 0.095 0.078 0.145 0.24 0.201 0.52 0.168 0.587 0.413 0.587 2.045 0 1.559-0.095 2.123-0.441 2.665-0.436 0.693-1.771 0.827-2.447 0.246-0.531-0.453-0.654-1.045-0.626-3.084 0.022-1.274 0.034-1.402 0.134-1.581 0.084-0.134 0.19-0.218 0.352-0.279 0.19-0.067 0.235-0.106 0.235-0.218v-0.134l-0.514 0.045c-0.648 0.061-1.045 0.061-1.737 0l-0.553-0.045 0.022 0.134c0.011 0.101 0.078 0.151 0.268 0.218 0.436 0.151 0.458 0.229 0.531 2.318 0.073 1.894 0.095 2.061 0.391 2.57 0.497 0.86 1.877 1.257 3.184 0.922 0.788-0.201 1.223-0.575 1.531-1.302 0.207-0.508 0.268-0.989 0.313-2.469 0.039-1.553 0.067-1.749 0.235-1.905 0.073-0.067 0.218-0.14 0.324-0.156 0.173-0.034 0.196-0.061 0.196-0.201 0-0.095-0.017-0.162-0.039-0.162-0.028 0.006-0.196 0.034-0.38 0.061z" fill="#ffffff" />
</g>
</svg>
