<?xml version="1.0" encoding="utf-8"?>
<!-- Generated by IcoMoon.io -->
<!DOCTYPE svg PUBLIC "-//W3C//DTD SVG 1.1//EN" "http://www.w3.org/Graphics/SVG/1.1/DTD/svg11.dtd">
<svg version="1.1" xmlns="http://www.w3.org/2000/svg" xmlns:xlink="http://www.w3.org/1999/xlink" width="36" height="32" viewBox="0 0 36 32">
<g>
</g>
	<path d="M24.134 11.173c-2.449 0.34-4.21 2.056-4.469 4.353-0.089 0.804 0.027 1.922 0.277 2.574 0.375 0.992 1.377 2.020 2.458 2.512 1.43 0.635 3.996 0.715 5.667 0.161l0.688-0.232 0.063-0.59c0.027-0.331 0.080-0.787 0.107-1.028 0.054-0.402 0.054-0.42-0.17-0.42-0.197 0-0.25 0.063-0.375 0.438-0.179 0.545-0.652 1.099-1.144 1.341-0.858 0.411-2.27 0.411-3.173-0.009-0.93-0.438-1.823-1.654-2.065-2.825-0.143-0.697-0.125-2.297 0.036-2.923 0.331-1.26 0.992-2.163 1.913-2.61 0.456-0.232 0.59-0.25 1.529-0.25 0.974 0 1.055 0.018 1.511 0.268 0.679 0.375 1.099 1.010 1.296 1.94 0.045 0.197 0.107 0.25 0.286 0.25h0.232l-0.027-0.965c-0.018-0.626 0.018-1.091 0.098-1.341 0.152-0.483 0.045-0.635-0.331-0.474-0.197 0.080-0.402 0.072-0.921-0.027-0.867-0.17-2.744-0.241-3.486-0.143z" fill="#000000" />
	<path d="M4.559 11.441c0 0.125 0.089 0.197 0.34 0.268 0.349 0.089 0.652 0.349 0.778 0.67 0.036 0.098 0.098 1.421 0.143 2.95 0.054 2.369 0.089 2.851 0.241 3.325 0.554 1.761 1.77 2.539 3.951 2.539 1.94 0 3.12-0.626 3.763-2.020 0.42-0.894 0.509-1.564 0.599-4.317 0.080-2.887 0.089-2.905 0.849-3.137 0.304-0.089 0.42-0.179 0.42-0.295 0-0.143-0.054-0.161-0.509-0.107-0.286 0.036-0.679 0.089-0.876 0.116-0.197 0.036-0.518 0.036-0.715 0-0.706-0.125-1.412-0.134-1.448-0.018-0.027 0.063 0.072 0.161 0.215 0.215 1.18 0.465 1.144 0.366 1.144 3.432-0.009 1.966-0.036 2.521-0.161 3.021-0.42 1.663-1.135 2.253-2.744 2.253-0.965 0-1.448-0.161-1.949-0.661-0.706-0.715-0.831-1.26-0.885-3.987-0.072-3.227 0.054-3.754 0.885-3.978 0.313-0.089 0.447-0.286 0.259-0.393-0.045-0.027-0.527 0.009-1.082 0.080-0.894 0.116-1.126 0.116-2.029 0-1.26-0.17-1.189-0.17-1.189 0.045z" fill="#000000" />
</svg>
